HIERARCHY
ROOT Root
{
  OFFSET 0.0 0.0 0.0
  CHANNELS 6 Xposition Yposition Zposition Zrotation Yrotation Xrotation
  JOINT Hips
  {
    OFFSET 0.0 100.0 0.0
    CHANNELS 6 Xposition Yposition Zposition Zrotation Yrotation Xrotation
    JOINT Spine1
    {
      OFFSET 5.003913 -0.037094 -0.013727
      CHANNELS 3 Zrotation Yrotation Xrotation
      JOINT Spine2
      {
        OFFSET 7.125363 -1e-06 0.0
        CHANNELS 3 Zrotation Yrotation Xrotation
        JOINT Chest
        {
          OFFSET 7.594027 1e-06 0.0
          CHANNELS 3 Zrotation Yrotation Xrotation
          JOINT Neck1
          {
            OFFSET 26.313086 -0.460272 -0.181672
            CHANNELS 3 Zrotation Yrotation Xrotation
            JOINT Neck2
            {
              OFFSET 8.045911 0.0 0.0
              CHANNELS 3 Zrotation Yrotation Xrotation
              JOINT Head
              {
                OFFSET 6.432774 0.0 0.0
                CHANNELS 3 Zrotation Yrotation Xrotation
                JOINT HeadEnd
                {
                  OFFSET 16.169773 0.06451 0.00362
                  CHANNELS 3 Zrotation Yrotation Xrotation
                }
                JOINT Jaw
                {
                  OFFSET 0.108741 3.12938 0.002639
                  CHANNELS 3 Zrotation Yrotation Xrotation
                }
                JOINT LeftEye
                {
                  OFFSET 4.45173 8.166359 3.206392
                  CHANNELS 3 Zrotation Yrotation Xrotation
                }
                JOINT RightEye
                {
                  OFFSET 4.436895 8.135758 -3.222429
                  CHANNELS 3 Zrotation Yrotation Xrotation
                }
              }
            }
          }
          JOINT LeftShoulder
          {
            OFFSET 23.218927 5.195579 1.621656
            CHANNELS 3 Zrotation Yrotation Xrotation
            JOINT LeftArm
            {
              OFFSET 15.902118 2e-06 -2e-06
              CHANNELS 3 Zrotation Yrotation Xrotation
              JOINT LeftForeArm
              {
                OFFSET 28.739307 0.0 -1e-06
                CHANNELS 3 Zrotation Yrotation Xrotation
                JOINT LeftHand
                {
                  OFFSET 27.093981 -4e-06 0.0
                  CHANNELS 3 Zrotation Yrotation Xrotation
                  JOINT LeftHandThumb1
                  {
                    OFFSET 2.276781 3.380274 0.83384
                    CHANNELS 3 Zrotation Yrotation Xrotation
                    JOINT LeftHandThumb2
                    {
                      OFFSET 4.705309 -1e-06 -1e-06
                      CHANNELS 3 Zrotation Yrotation Xrotation
                      JOINT LeftHandThumb3
                      {
                        OFFSET 2.798515 0.0 3e-06
                        CHANNELS 3 Zrotation Yrotation Xrotation
                        JOINT LeftHandThumbEnd
                        {
                          OFFSET 3.180793 4e-06 -4e-06
                          CHANNELS 3 Zrotation Yrotation Xrotation
                        }
                      }
                    }
                  }
                  JOINT LeftHandIndex1
                  {
                    OFFSET 3.247786 2.352677 0.137192
                    CHANNELS 3 Zrotation Yrotation Xrotation
                    JOINT LeftHandIndex2
                    {
                      OFFSET 6.367095 1e-06 0.0
                      CHANNELS 3 Zrotation Yrotation Xrotation
                      JOINT LeftHandIndex3
                      {
                        OFFSET 3.662364 0.0 0.0
                        CHANNELS 3 Zrotation Yrotation Xrotation
                        JOINT LeftHandIndex4
                        {
                          OFFSET 2.329242 4e-06 -4e-06
                          CHANNELS 3 Zrotation Yrotation Xrotation
                          JOINT LeftHandIndexEnd
                          {
                            OFFSET 2.767823 1e-06 0.0
                            CHANNELS 3 Zrotation Yrotation Xrotation
                          }
                        }
                      }
                    }
                  }
                  JOINT LeftHandMiddle1
                  {
                    OFFSET 3.163612 0.945023 -0.406112
                    CHANNELS 3 Zrotation Yrotation Xrotation
                    JOINT LeftHandMiddle2
                    {
                      OFFSET 6.276789 3e-06 0.0
                      CHANNELS 3 Zrotation Yrotation Xrotation
                      JOINT LeftHandMiddle3
                      {
                        OFFSET 4.35652 -1e-06 4e-06
                        CHANNELS 3 Zrotation Yrotation Xrotation
                        JOINT LeftHandMiddle4
                        {
                          OFFSET 2.996877 0.0 8e-06
                          CHANNELS 3 Zrotation Yrotation Xrotation
                          JOINT LeftHandMiddleEnd
                          {
                            OFFSET 2.323256 3e-06 -4e-06
                            CHANNELS 3 Zrotation Yrotation Xrotation
                          }
                        }
                      }
                    }
                  }
                  JOINT LeftHandRing1
                  {
                    OFFSET 2.882606 -0.309162 0.107445
                    CHANNELS 3 Zrotation Yrotation Xrotation
                    JOINT LeftHandRing2
                    {
                      OFFSET 6.033198 0.0 4e-06
                      CHANNELS 3 Zrotation Yrotation Xrotation
                      JOINT LeftHandRing3
                      {
                        OFFSET 4.350578 3e-06 0.0
                        CHANNELS 3 Zrotation Yrotation Xrotation
                        JOINT LeftHandRing4
                        {
                          OFFSET 2.651321 2e-06 -7e-06
                          CHANNELS 3 Zrotation Yrotation Xrotation
                          JOINT LeftHandRingEnd
                          {
                            OFFSET 1.937663 1e-06 -4e-06
                            CHANNELS 3 Zrotation Yrotation Xrotation
                          }
                        }
                      }
                    }
                  }
                  JOINT LeftHandPinky1
                  {
                    OFFSET 2.865315 -1.525436 0.575687
                    CHANNELS 3 Zrotation Yrotation Xrotation
                    JOINT LeftHandPinky2
                    {
                      OFFSET 5.54936 1e-06 -8e-06
                      CHANNELS 3 Zrotation Yrotation Xrotation
                      JOINT LeftHandPinky3
                      {
                        OFFSET 3.070974 0.0 -4e-06
                        CHANNELS 3 Zrotation Yrotation Xrotation
                        JOINT LeftHandPinky4
                        {
                          OFFSET 1.549672 1e-06 0.0
                          CHANNELS 3 Zrotation Yrotation Xrotation
                          JOINT LeftHandPinkyEnd
                          {
                            OFFSET 1.952123 0.0 0.0
                            CHANNELS 3 Zrotation Yrotation Xrotation
                          }
                        }
                      }
                    }
                  }
                }
              }
            }
          }
          JOINT RightShoulder
          {
            OFFSET 23.161716 5.296122 -1.380114
            CHANNELS 3 Zrotation Yrotation Xrotation
            JOINT RightArm
            {
              OFFSET -16.027195 -2e-06 1.1e-05
              CHANNELS 3 Zrotation Yrotation Xrotation
              JOINT RightForeArm
              {
                OFFSET -28.736639 4e-06 2e-06
                CHANNELS 3 Zrotation Yrotation Xrotation
                JOINT RightHand
                {
                  OFFSET -27.133619 6e-06 0.0
                  CHANNELS 3 Zrotation Yrotation Xrotation
                  JOINT RightHandThumb1
                  {
                    OFFSET -2.274328 -3.351035 -0.83067
                    CHANNELS 3 Zrotation Yrotation Xrotation
                    JOINT RightHandThumb2
                    {
                      OFFSET -4.703594 -3e-06 2e-06
                      CHANNELS 3 Zrotation Yrotation Xrotation
                      JOINT RightHandThumb3
                      {
                        OFFSET -2.794935 -4e-06 -3e-06
                        CHANNELS 3 Zrotation Yrotation Xrotation
                        JOINT RightHandThumbEnd
                        {
                          OFFSET -3.183852 4e-06 1e-06
                          CHANNELS 3 Zrotation Yrotation Xrotation
                        }
                      }
                    }
                  }
                  JOINT RightHandIndex1
                  {
                    OFFSET -3.253496 -2.33755 -0.127667
                    CHANNELS 3 Zrotation Yrotation Xrotation
                    JOINT RightHandIndex2
                    {
                      OFFSET -6.344434 0.0 0.0
                      CHANNELS 3 Zrotation Yrotation Xrotation
                      JOINT RightHandIndex3
                      {
                        OFFSET -3.654871 0.0 -8e-06
                        CHANNELS 3 Zrotation Yrotation Xrotation
                        JOINT RightHandIndex4
                        {
                          OFFSET -2.327586 -1e-06 0.0
                          CHANNELS 3 Zrotation Yrotation Xrotation
                          JOINT RightHandIndexEnd
                          {
                            OFFSET -2.770001 3e-06 8e-06
                            CHANNELS 3 Zrotation Yrotation Xrotation
                          }
                        }
                      }
                    }
                  }
                  JOINT RightHandMiddle1
                  {
                    OFFSET -3.168223 -0.944764 0.411762
                    CHANNELS 3 Zrotation Yrotation Xrotation
                    JOINT RightHandMiddle2
                    {
                      OFFSET -6.266691 -1e-06 -4e-06
                      CHANNELS 3 Zrotation Yrotation Xrotation
                      JOINT RightHandMiddle3
                      {
                        OFFSET -4.348901 0.0 0.0
                        CHANNELS 3 Zrotation Yrotation Xrotation
                        JOINT RightHandMiddle4
                        {
                          OFFSET -3.00024 2e-06 -4e-06
                          CHANNELS 3 Zrotation Yrotation Xrotation
                          JOINT RightHandMiddleEnd
                          {
                            OFFSET -2.321477 -4e-06 -4e-06
                            CHANNELS 3 Zrotation Yrotation Xrotation
                          }
                        }
                      }
                    }
                  }
                  JOINT RightHandRing1
                  {
                    OFFSET -2.885654 0.293261 -0.119232
                    CHANNELS 3 Zrotation Yrotation Xrotation
                    JOINT RightHandRing2
                    {
                      OFFSET -6.032835 -1e-06 -4e-06
                      CHANNELS 3 Zrotation Yrotation Xrotation
                      JOINT RightHandRing3
                      {
                        OFFSET -4.33881 0.0 -4e-06
                        CHANNELS 3 Zrotation Yrotation Xrotation
                        JOINT RightHandRing4
                        {
                          OFFSET -2.654903 -4e-06 -4e-06
                          CHANNELS 3 Zrotation Yrotation Xrotation
                          JOINT RightHandRingEnd
                          {
                            OFFSET -1.935122 0.0 4e-06
                            CHANNELS 3 Zrotation Yrotation Xrotation
                          }
                        }
                      }
                    }
                  }
                  JOINT RightHandPinky1
                  {
                    OFFSET -2.866241 1.503904 -0.60527
                    CHANNELS 3 Zrotation Yrotation Xrotation
                    JOINT RightHandPinky2
                    {
                      OFFSET -5.553177 -2e-06 0.0
                      CHANNELS 3 Zrotation Yrotation Xrotation
                      JOINT RightHandPinky3
                      {
                        OFFSET -3.062664 -1e-06 -4e-06
                        CHANNELS 3 Zrotation Yrotation Xrotation
                        JOINT RightHandPinky4
                        {
                          OFFSET -1.546529 2e-06 4e-06
                          CHANNELS 3 Zrotation Yrotation Xrotation
                          JOINT RightHandPinkyEnd
                          {
                            OFFSET -1.952341 0.0 -4e-06
                            CHANNELS 3 Zrotation Yrotation Xrotation
                          }
                        }
                      }
                    }
                  }
                }
              }
            }
          }
        }
      }
    }
    JOINT LeftLeg
    {
      OFFSET -8.443107 2.567604 10.043214
      CHANNELS 3 Zrotation Yrotation Xrotation
      JOINT LeftShin
      {
        OFFSET 43.229198 1e-06 -1e-06
        CHANNELS 3 Zrotation Yrotation Xrotation
        JOINT LeftFoot
        {
          OFFSET 42.298611 1e-06 1e-06
          CHANNELS 3 Zrotation Yrotation Xrotation
          JOINT LeftToeBase
          {
            OFFSET 14.165858 1e-06 0.0
            CHANNELS 3 Zrotation Yrotation Xrotation
            JOINT LeftToeEnd
            {
              OFFSET 6.7141 -0.234461 0.0
              CHANNELS 3 Zrotation Yrotation Xrotation
            }
          }
        }
      }
    }
    JOINT RightLeg
    {
      OFFSET -8.303923 2.592729 -10.047278
      CHANNELS 3 Zrotation Yrotation Xrotation
      JOINT RightShin
      {
        OFFSET -43.369682 0.0 1e-06
        CHANNELS 3 Zrotation Yrotation Xrotation
        JOINT RightFoot
        {
          OFFSET -42.260784 4e-06 2e-06
          CHANNELS 3 Zrotation Yrotation Xrotation
          JOINT RightToeBase
          {
            OFFSET -14.222245 -2e-06 -1e-06
            CHANNELS 3 Zrotation Yrotation Xrotation
            JOINT RightToeEnd
            {
              OFFSET -6.660062 0.232574 -2e-06
              CHANNELS 3 Zrotation Yrotation Xrotation
            }
          }
        }
      }
    }
  }
}
MOTION
Frames: 5
Frame Time: 0.03333333333333333
0.0 0.0 0.0 0.0 -0.0 0.0 0.199512 100.371788 -6.200132 90.642929 1.50566 89.799362 -2.019203 -1.320378 -0.087436 -11.765036 -0.901765 -0.369671 18.055712 0.092307 -2.713403 19.002586 1.046915 2.757128 -2.535555 -0.854773 0.848544 -31.880312 1.499293 -0.559307 6e-06 -0.0 0.0 -0.003587 0.004458 -0.01401 0.041726 0.012072 -0.010046 0.045516 -0.00371 -0.01089 -120.845375 -72.28685 137.127487 43.999207 -55.357056 15.475887 23.269169 -0.087395 -0.035236 3.463643 -0.318333 0.295488 17.636639 -26.322741 52.411209 -19.466663 -14.395597 29.410389 -1e-06 -8.774822 -1e-06 15.915026 -18.040623 6.146403 -0.609778 -1.795654 -3.88933 -4.807087 -11.046811 -2.93785 5e-06 -20.976015 -2e-06 -5.019972 -25.033558 -4.031876 6e-06 2e-06 -3e-06 -10.634535 -5.686971 -3.565588 10.573274 -17.922955 -3.113897 3e-06 -13.821208 -1e-06 -0.501779 -31.181505 -4.027013 -11.726009 -59.773499 7.461617 -13.982716 -7.150198 -2.875046 13.772731 -8.401493 -3.218242 0.347733 -34.211555 0.771658 -0.963028 -17.73337 2.62102 -1e-06 0.0 -0.0 -17.346424 -20.095219 -4.201784 21.757561 -1.638374 3.866429 2e-06 -6.338824 -1e-06 -1.697588 -22.591749 -6.194007 -0.0 -2e-06 -0.0 48.773438 -73.379036 148.205032 48.934101 -54.694042 12.352481 22.875093 -0.286555 -0.034587 3.98513 2.401594 1.898755 22.182116 -20.375889 49.933308 -16.701815 -16.743528 28.47653 -4e-06 -12.690605 -2e-06 16.251665 -17.761597 2.439522 -0.105919 -1.513856 -4.27588 -5.03904 -5.612871 -2.953556 4e-06 -11.020524 -1e-06 -6.111299 -15.89533 -3.840471 0.0 -0.0 2e-06 -10.283372 -5.680288 -4.341837 11.028296 -11.302406 -2.372636 -1.384268 -14.238581 -6.320124 -0.62544 -26.924194 -3.8276 -4.198086 -49.732376 -4.041863 -13.708526 -7.363476 -3.720939 18.141153 -14.052739 -3.242677 6e-06 -18.787271 -4e-06 -0.429711 -8.456043 2.555506 1e-06 0.0 1e-06 -15.923536 -20.094484 -5.473584 30.419214 -7.190827 1.735924 3e-06 -8.162929 -1e-06 -1.861903 -22.861467 -6.167941 1e-06 -3e-06 -1e-06 -176.02005 -1.367003 8.740171 6.185167 -0.055651 -0.041491 -76.957436 -9.115889 -7.518155 -5.248195 1.566158 2.139651 -0.999998 0.0 -0.0 5.167694 -2.531682 1.228884 5.776553 -0.011257 0.085207 -78.154381 -6.381423 -6.070313 -4.88477 0.714179 1.676055 -1.000002 0.0 -0.0 
0.0 0.0 0.0 0.0 -0.0 0.0 0.213543 100.3955 -6.129673 90.608627 1.550258 89.762108 -2.029076 -1.31269 -0.113824 -11.757034 -0.884151 -0.325141 18.042892 0.114527 -2.740092 19.053703 1.092828 2.730427 -2.510632 -0.822083 0.883178 -31.92317 1.46567 -0.496062 6e-06 0.0 -0.0 -0.0063 0.005096 0.003411 0.062108 0.016007 0.012345 0.06298 -0.006156 0.001356 -120.787132 -72.282669 137.175049 44.119999 -55.409233 15.258678 23.240204 -0.155028 -0.07551 3.502709 -0.365302 0.540487 17.636633 -26.322733 52.411201 -19.466665 -14.395597 29.410395 -0.0 -8.774822 -0.0 15.901888 -17.995461 6.138549 -0.609777 -1.795655 -3.889327 -4.80709 -11.046813 -2.937851 6e-06 -20.976021 -5e-06 -5.019969 -25.033566 -4.03188 4e-06 1e-06 1e-06 -10.634534 -5.686972 -3.565589 10.573275 -17.922955 -3.113904 4e-06 -13.821209 0.0 -0.501776 -31.181505 -4.027014 -11.673684 -59.707493 7.502614 -13.982716 -7.1502 -2.87504 13.772729 -8.401491 -3.218242 0.347735 -34.211555 0.771652 -0.963026 -17.733372 2.621018 -0.0 -1e-06 0.0 -17.34642 -20.095219 -4.20178 21.757559 -1.638376 3.866427 2e-06 -6.338823 0.0 -1.697588 -22.591747 -6.194008 -2e-06 -3e-06 -1e-06 48.770054 -73.351112 148.301666 48.951954 -54.628162 12.298977 22.807236 -0.266857 -0.043122 4.003643 2.259423 1.857466 22.182117 -20.375898 49.933319 -16.701813 -16.74353 28.476532 -3e-06 -12.690603 -3e-06 16.222769 -17.758574 2.441676 -0.10592 -1.513854 -4.275883 -5.039041 -5.612871 -2.953556 4e-06 -11.020525 -1e-06 -6.111296 -15.895332 -3.840472 -1e-06 1e-06 2e-06 -10.283371 -5.680288 -4.341841 11.028294 -11.302405 -2.372633 -1.384268 -14.238579 -6.320119 -0.62544 -26.924191 -3.827598 -4.221058 -49.811676 -4.012338 -13.708525 -7.363474 -3.720943 18.141153 -14.052739 -3.242678 7e-06 -18.78727 -1e-06 -0.42971 -8.456047 2.555505 -0.0 1e-06 1e-06 -15.923532 -20.094482 -5.473587 30.41921 -7.190827 1.735924 3e-06 -8.162929 0.0 -1.861902 -22.861471 -6.167943 -1e-06 -3e-06 0.0 -175.89859 -1.401893 8.787487 6.101161 -0.045525 -0.005925 -76.855537 -9.181104 -7.637077 -5.259685 1.589014 2.148836 -1.0 -0.0 0.0 5.282528 -2.495157 1.320312 5.661323 -0.018396 0.096419 -77.975937 -6.484608 -6.049986 -4.901018 0.696425 1.67702 -1.000002 -0.0 0.0 
0.0 0.0 0.0 0.0 -0.0 0.0 0.230856 100.393448 -6.073413 90.603287 1.607698 89.714676 -2.057745 -1.319933 -0.123122 -11.782301 -0.878114 -0.311672 18.089092 0.126913 -2.750319 19.152361 1.13256 2.753827 -2.527473 -0.787783 0.866387 -31.863394 1.441188 -0.446593 6e-06 -0.0 0.0 -0.006548 0.004837 0.010024 0.060452 0.015536 0.022077 0.06352 -0.00637 0.004469 -120.744209 -72.279823 137.14624 44.089317 -55.497726 15.228651 23.250135 -0.222053 -0.107009 3.49829 -0.424329 0.598652 17.636629 -26.322731 52.41119 -19.46666 -14.395592 29.410385 -0.0 -8.774821 -0.0 15.899564 -17.972326 6.142875 -0.609777 -1.795652 -3.889328 -4.807088 -11.046811 -2.937848 5e-06 -20.976015 -4e-06 -5.019971 -25.033556 -4.031878 7e-06 -2e-06 0.0 -10.634531 -5.686969 -3.565587 10.573271 -17.922951 -3.113898 3e-06 -13.821209 0.0 -0.501779 -31.181505 -4.027012 -11.687296 -59.639832 7.521314 -13.982712 -7.150198 -2.87504 13.772728 -8.401493 -3.218242 0.347738 -34.211555 0.771651 -0.963027 -17.73337 2.62102 0.0 -1e-06 -0.0 -17.346413 -20.095217 -4.201781 21.757555 -1.638375 3.866427 2e-06 -6.338823 -2e-06 -1.69759 -22.591742 -6.194002 -0.0 -3e-06 -1e-06 48.671711 -73.304909 148.472198 48.879181 -54.555241 12.324235 22.743582 -0.253174 -0.041679 4.00989 2.21474 1.883315 22.182117 -20.375883 49.933311 -16.701813 -16.743528 28.47653 -3e-06 -12.690601 -2e-06 16.216333 -17.732792 2.463301 -0.105919 -1.513856 -4.275883 -5.039041 -5.612874 -2.953557 3e-06 -11.020525 -1e-06 -6.111299 -15.895334 -3.840473 -0.0 2e-06 1e-06 -10.283369 -5.680288 -4.341839 11.028293 -11.302404 -2.372635 -1.38427 -14.238581 -6.32012 -0.62544 -26.924191 -3.827599 -4.254879 -49.855232 -3.975079 -13.708524 -7.363475 -3.720938 18.14115 -14.052739 -3.242676 7e-06 -18.78727 -4e-06 -0.42971 -8.456044 2.555503 0.0 0.0 -0.0 -15.923534 -20.094486 -5.473587 30.419214 -7.190827 1.735928 3e-06 -8.162929 -2e-06 -1.861901 -22.861469 -6.167944 -1e-06 -4e-06 0.0 -175.776901 -1.399469 8.850441 6.047945 -0.040636 0.010651 -76.851311 -9.267876 -7.7018 -5.230102 1.59868 2.15561 -0.999998 0.0 -0.0 5.40989 -2.498633 1.407079 5.596832 -0.016087 0.095534 -77.950592 -6.588912 -6.04895 -4.884148 0.689332 1.677602 -1.000001 -0.0 -0.0 
0.0 0.0 0.0 0.0 -0.0 0.0 0.223466 100.385117 -6.018116 90.598251 1.680987 89.66095 -2.085552 -1.329431 -0.12833 -11.816834 -0.871169 -0.317237 18.146574 0.136833 -2.728436 19.298979 1.13659 2.768042 -2.559659 -0.760556 0.857044 -31.794289 1.430227 -0.421073 6e-06 0.0 0.0 -0.007922 0.004465 0.01506 0.044415 0.013304 0.02843 0.050327 -0.005087 0.007823 -120.727867 -72.257721 137.125107 44.039894 -55.552483 15.366888 23.282534 -0.257636 -0.123272 3.500091 -0.444889 0.700975 17.636627 -26.322723 52.411182 -19.466661 -14.395597 29.410389 -0.0 -8.774822 -2e-06 15.893779 -17.947739 6.143059 -0.609778 -1.795653 -3.889325 -4.80709 -11.046812 -2.937851 4e-06 -20.976019 -3e-06 -5.019975 -25.033562 -4.03188 6e-06 2e-06 -2e-06 -10.634535 -5.686971 -3.565587 10.573272 -17.922951 -3.113902 2e-06 -13.821208 0.0 -0.501781 -31.181505 -4.027013 -11.699762 -59.583614 7.514542 -13.982716 -7.150198 -2.875041 13.772729 -8.401491 -3.218242 0.347733 -34.211552 0.771653 -0.963029 -17.733368 2.621019 -1e-06 1e-06 -0.0 -17.34642 -20.095217 -4.201781 21.757557 -1.638374 3.866427 2e-06 -6.338825 -1e-06 -1.697591 -22.591747 -6.194005 -0.0 -2e-06 -1e-06 48.546177 -73.239754 148.655762 48.753033 -54.479317 12.474215 22.685369 -0.224663 -0.033514 3.995682 2.17075 1.86694 22.182112 -20.375889 49.933315 -16.701815 -16.743528 28.476532 -4e-06 -12.690601 -2e-06 16.205084 -17.69849 2.492707 -0.105921 -1.513857 -4.275881 -5.039042 -5.612871 -2.953555 3e-06 -11.020524 -1e-06 -6.111297 -15.895334 -3.840474 -0.0 0.0 2e-06 -10.28337 -5.680288 -4.34184 11.028293 -11.302404 -2.372632 -1.384269 -14.238578 -6.32012 -0.625439 -26.924189 -3.827601 -4.303312 -49.84824 -3.920179 -13.708527 -7.363477 -3.720936 18.14115 -14.052739 -3.242678 7e-06 -18.78727 -4e-06 -0.42971 -8.456045 2.555505 -1e-06 1e-06 0.0 -15.923536 -20.094482 -5.473583 30.41921 -7.190825 1.735925 3e-06 -8.162927 -1e-06 -1.861899 -22.861473 -6.167943 -2e-06 -3e-06 -1e-06 -175.631592 -1.401214 8.890349 5.981306 -0.04 0.017158 -76.861626 -9.369575 -7.725132 -5.200635 1.596127 2.156238 -0.999998 -0.0 0.0 5.520204 -2.512261 1.468819 5.55413 -0.014642 0.082161 -77.950958 -6.634042 -6.059916 -4.879962 0.680629 1.67584 -1.000002 -0.0 -0.0 
0.0 0.0 0.0 0.0 -0.0 0.0 0.207829 100.377213 -5.964582 90.596146 1.750676 89.621895 -2.118788 -1.335591 -0.125097 -11.844223 -0.869476 -0.337993 18.190399 0.138648 -2.696854 19.444784 1.133023 2.767926 -2.578607 -0.733405 0.866969 -31.739216 1.42719 -0.394324 6e-06 0.0 0.0 -0.005606 0.005587 0.025248 0.03593 0.014458 0.039099 0.042726 -0.004041 0.017124 -120.708702 -72.225655 137.096359 44.043854 -55.56356 15.588701 23.293253 -0.265874 -0.124054 3.512337 -0.444956 0.838468 17.636627 -26.322725 52.411179 -19.46666 -14.395592 29.410385 -1e-06 -8.774821 -2e-06 15.868478 -17.930489 6.155701 -0.609777 -1.795653 -3.889329 -4.807088 -11.04681 -2.937848 5e-06 -20.976015 -4e-06 -5.019971 -25.033556 -4.031878 7e-06 1e-06 1e-06 -10.634531 -5.686969 -3.565587 10.573271 -17.922949 -3.113897 4e-06 -13.821206 -1e-06 -0.50178 -31.181498 -4.027012 -11.716427 -59.53968 7.513046 -13.982712 -7.150198 -2.87504 13.772727 -8.40149 -3.218242 0.347735 -34.211544 0.771655 -0.963028 -17.733366 2.621019 -0.0 0.0 1e-06 -17.346413 -20.095215 -4.20178 21.757555 -1.638375 3.866426 1e-06 -6.338823 -1e-06 -1.69759 -22.591747 -6.194005 -2e-06 -2e-06 -1e-06 48.453777 -73.168304 148.781158 48.616333 -54.423363 12.720583 22.630268 -0.194721 -0.022689 3.967678 2.115524 1.819121 22.182114 -20.375898 49.933323 -16.701811 -16.743528 28.476532 -4e-06 -12.6906 -3e-06 16.19227 -17.68067 2.523136 -0.105919 -1.513855 -4.275882 -5.039041 -5.612871 -2.953554 4e-06 -11.020523 0.0 -6.111295 -15.89533 -3.840474 -1e-06 1e-06 2e-06 -10.283367 -5.680287 -4.341838 11.028293 -11.302404 -2.372636 -1.384268 -14.238579 -6.32012 -0.625438 -26.924189 -3.827598 -4.343543 -49.822208 -3.882145 -13.708523 -7.363473 -3.720938 18.141146 -14.052738 -3.242676 7e-06 -18.787268 -0.0 -0.42971 -8.456043 2.555502 -0.0 1e-06 -0.0 -15.923532 -20.094479 -5.473584 30.41921 -7.190824 1.735924 4e-06 -8.162927 0.0 -1.861903 -22.861464 -6.167937 1e-06 -5e-06 -1e-06 -175.494675 -1.399338 8.955362 5.916795 -0.043577 0.014314 -76.867104 -9.47025 -7.730577 -5.165703 1.592541 2.154943 -0.999998 -0.0 -0.0 5.629167 -2.53001 1.487079 5.50828 -0.013448 0.075383 -77.952202 -6.644182 -6.099331 -4.869944 0.669454 1.67348 -1.000002 -0.0 0.0 
